<svg width="14" height="15" viewBox="0 0 14 15" fill="none" xmlns="http://www.w3.org/2000/svg">
<g id="Bold" opacity="0.9" clip-path="url(#clip0_1073_17695)">
<g id="Group">
<path id="Vector" d="M10.6919 5.07344C10.6604 5.00402 10.6604 4.92411 10.6919 4.85469L10.9813 4.21711C11.1113 3.93069 11.1172 3.59936 10.9964 3.30886C10.8763 3.01836 10.6383 2.78794 10.3437 2.67769L9.68743 2.43152C9.61568 2.40469 9.55968 2.34811 9.53226 2.27636L9.28609 1.62069C9.17584 1.32611 8.94601 1.08811 8.65493 0.96794C8.36443 0.846607 8.03309 0.85244 7.74726 0.983107L7.10909 1.27302C7.03968 1.30452 6.96034 1.30452 6.89034 1.27302L6.25276 0.98369C5.96634 0.853023 5.63443 0.84719 5.34451 0.968523C5.05459 1.08752 4.82476 1.32611 4.71451 1.62011L4.46834 2.27636C4.44093 2.34811 4.38493 2.40411 4.31318 2.43152L3.65751 2.67769C3.36293 2.78794 3.12434 3.01777 3.00418 3.30827C2.88401 3.59877 2.88984 3.93011 3.01934 4.21594L3.30926 4.85411C3.34076 4.92352 3.34076 5.00344 3.30926 5.07286L3.01993 5.71102C2.88984 5.99744 2.88401 6.32877 3.00418 6.61927C3.12434 6.90977 3.36234 7.14019 3.65693 7.25044L4.31318 7.49661C4.38493 7.52344 4.44093 7.58002 4.46834 7.65177L4.71451 8.30744C4.82476 8.60202 5.05459 8.84002 5.34568 8.96019C5.48509 9.01794 5.63326 9.04652 5.78201 9.04652C5.94301 9.04652 6.10459 9.01269 6.25393 8.94502L6.89209 8.65511C6.96151 8.62361 7.04084 8.62361 7.11084 8.65511L7.74843 8.94444C8.03484 9.07511 8.36676 9.07977 8.65668 8.95961C8.94718 8.83944 9.17759 8.60144 9.28784 8.30686L9.53401 7.65061C9.56084 7.57886 9.61743 7.52286 9.68918 7.49544L10.3448 7.24927C10.6394 7.13902 10.8774 6.90919 10.9976 6.61811C11.1183 6.32761 11.1125 5.99686 10.9824 5.71044L10.6919 5.07344ZM7.00059 7.29711C5.71376 7.29711 4.66726 6.25061 4.66726 4.96377C4.66726 3.67694 5.71376 2.63044 7.00059 2.63044C8.28743 2.63044 9.33393 3.67694 9.33393 4.96377C9.33393 6.25061 8.28743 7.29711 7.00059 7.29711Z" fill="white"/>
</g>
<g id="Group_2">
<path id="Vector_2" d="M6.47466 12.0462L5.00466 14.6595C4.92883 14.7937 4.77716 14.8812 4.61966 14.8812C4.61966 14.8812 4.61383 14.8812 4.60799 14.8812C4.45049 14.8754 4.30466 14.782 4.22883 14.6362L3.43549 13.0204L1.63883 13.1545C1.47549 13.172 1.32383 13.0904 1.23633 12.9562C1.14883 12.822 1.14299 12.647 1.21883 12.507L3.63383 8.17871L3.74466 8.21954L3.89633 8.61621C4.08883 9.13538 4.49716 9.55538 5.01049 9.77121C5.08049 9.80038 5.15049 9.82371 5.22633 9.84121L6.47466 12.0462Z" fill="white"/>
</g>
<g id="Group_3">
<path id="Vector_3" d="M12.7639 12.9563C12.6764 13.0963 12.5247 13.1721 12.3614 13.1604L10.5297 13.0204L9.73055 14.6363C9.65471 14.7821 9.50888 14.8754 9.34555 14.8813C9.34555 14.8813 9.33971 14.8813 9.33388 14.8813C9.17638 14.8813 9.03055 14.7938 8.95471 14.6596L6.97721 11.1538L6.24805 9.8646C6.37638 9.83543 6.49888 9.7946 6.61555 9.7421L7.00055 9.5671L7.38555 9.7421C7.48471 9.78876 7.59555 9.82376 7.70638 9.85293C7.86971 9.8996 8.04471 9.92293 8.21971 9.92293C8.48805 9.92293 8.74471 9.87043 8.98971 9.77126C9.50305 9.55543 9.91138 9.13543 10.1039 8.61626L10.2555 8.2196L10.3372 8.19043L12.7755 12.5071C12.8572 12.6471 12.8514 12.8221 12.7639 12.9563Z" fill="white"/>
</g>
</g>
<defs>
<clipPath id="clip0_1073_17695">
<rect width="14" height="14" fill="white" transform="translate(0 0.880859)"/>
</clipPath>
</defs>
</svg>
