<svg width="22" height="22" viewBox="0 0 22 22" fill="none" xmlns="http://www.w3.org/2000/svg">
<g id="Bold" opacity="0.9" clip-path="url(#clip0_351_3902)">
<g id="Group">
<path id="Vector" d="M16.8002 6.58932C16.7507 6.48023 16.7507 6.35465 16.8002 6.24557L17.2549 5.24365C17.4593 4.79357 17.4685 4.2729 17.2787 3.8164C17.0899 3.3599 16.7159 2.99782 16.253 2.82457L15.2217 2.43773C15.109 2.39557 15.021 2.30665 14.9779 2.1939L14.591 1.16357C14.4178 0.700651 14.0566 0.326651 13.5992 0.137818C13.1427 -0.052849 12.622 -0.0436823 12.1729 0.161651L11.17 0.617234C11.061 0.666734 10.9363 0.666734 10.8263 0.617234L9.82437 0.162568C9.37429 -0.0427657 8.8527 -0.0519323 8.39712 0.138734C7.94154 0.325734 7.58037 0.700651 7.40712 1.16265L7.02029 2.1939C6.9772 2.30665 6.8892 2.39465 6.77645 2.43773L5.74612 2.82457C5.2832 2.99782 4.90829 3.35898 4.71945 3.81548C4.53062 4.27198 4.53979 4.79265 4.74329 5.24182L5.19887 6.24465C5.24837 6.35373 5.24837 6.47932 5.19887 6.5884L4.7442 7.59123C4.53979 8.04132 4.53062 8.56199 4.71945 9.01848C4.90829 9.47498 5.28229 9.83707 5.7452 10.0103L6.77645 10.3972C6.8892 10.4393 6.9772 10.5282 7.02029 10.641L7.40712 11.6713C7.58037 12.1342 7.94154 12.5082 8.39895 12.6971C8.61804 12.7878 8.85087 12.8327 9.08462 12.8327C9.33762 12.8327 9.59154 12.7796 9.8262 12.6732L10.829 12.2177C10.9381 12.1682 11.0628 12.1682 11.1728 12.2177L12.1747 12.6723C12.6248 12.8777 13.1464 12.885 13.602 12.6962C14.0585 12.5073 14.4205 12.1333 14.5938 11.6704L14.9806 10.6392C15.0228 10.5264 15.1117 10.4384 15.2245 10.3953L16.2548 10.0085C16.7177 9.83523 17.0917 9.47407 17.2805 9.01665C17.4703 8.56015 17.4611 8.0404 17.2567 7.59032L16.8002 6.58932ZM10.9995 10.0837C8.97737 10.0837 7.33287 8.43915 7.33287 6.41698C7.33287 4.39482 8.97737 2.75032 10.9995 2.75032C13.0217 2.75032 14.6662 4.39482 14.6662 6.41698C14.6662 8.43915 13.0217 10.0837 10.9995 10.0837Z" fill="white"/>
</g>
<g id="Group_2">
<path id="Vector_2" d="M10.1742 17.5453L7.86419 21.6519C7.74502 21.8628 7.50669 22.0003 7.25919 22.0003C7.25919 22.0003 7.25002 22.0003 7.24086 22.0003C6.99336 21.9911 6.76419 21.8444 6.64502 21.6153L5.39836 19.0761L2.57502 19.2869C2.31836 19.3144 2.08002 19.1861 1.94252 18.9753C1.80502 18.7644 1.79586 18.4894 1.91502 18.2694L5.71002 11.4678L5.88419 11.5319L6.12252 12.1553C6.42502 12.9711 7.06669 13.6311 7.87336 13.9703C7.98336 14.0161 8.09336 14.0528 8.21252 14.0803L10.1742 17.5453Z" fill="white"/>
</g>
<g id="Group_3">
<path id="Vector_3" d="M20.0556 18.9745C19.9181 19.1945 19.6797 19.3137 19.4231 19.2954L16.5447 19.0754L15.2889 21.6145C15.1697 21.8437 14.9406 21.9904 14.6839 21.9995C14.6839 21.9995 14.6747 21.9995 14.6656 21.9995C14.4181 21.9995 14.1889 21.862 14.0697 21.6512L10.9622 16.142L9.81641 14.1162C10.0181 14.0704 10.2106 14.0062 10.3939 13.9237L10.9989 13.6487L11.6039 13.9237C11.7597 13.997 11.9339 14.052 12.1081 14.0979C12.3647 14.1712 12.6397 14.2079 12.9147 14.2079C13.3364 14.2079 13.7397 14.1254 14.1247 13.9695C14.9314 13.6304 15.5731 12.9704 15.8756 12.1545L16.1139 11.5312L16.2422 11.4854L20.0739 18.2687C20.2022 18.4887 20.1931 18.7637 20.0556 18.9745Z" fill="white"/>
</g>
</g>
<defs>
<clipPath id="clip0_351_3902">
<rect width="22" height="22" fill="white"/>
</clipPath>
</defs>
</svg>
