<svg width="20" height="20" viewBox="0 0 20 20" fill="none" xmlns="http://www.w3.org/2000/svg">
<g id="Capa_1" opacity="0.9" clip-path="url(#clip0_351_3877)">
<g id="Group">
<path id="Vector" d="M19.3734 11.2322L17.4199 9.2787C16.8797 8.73848 16.0038 8.73848 15.4636 9.2787C14.9234 9.81892 14.9234 10.6948 15.4636 11.235C14.9234 10.6948 14.0475 10.6948 13.5073 11.235C12.967 11.7752 12.967 12.6511 13.5072 13.1913C12.967 12.6511 12.0912 12.6511 11.5509 13.1913C11.0107 13.7316 11.0107 14.6074 11.5509 15.1476C11.0107 14.6074 10.1348 14.6074 9.59462 15.1477C9.0544 15.6879 9.0544 16.5638 9.59462 17.104L11.5481 19.0574C12.0883 19.5977 12.9642 19.5977 13.5044 19.0574C14.0446 18.5172 14.0446 17.6413 13.5044 17.1011C14.0446 17.6413 14.9205 17.6413 15.4607 17.1011C16.0009 16.5609 16.0009 15.685 15.4607 15.1448C16.0009 15.685 16.8768 15.685 17.417 15.1448C17.9572 14.6046 17.9573 13.7287 17.4171 13.1885C17.9573 13.7287 18.8331 13.7287 19.3734 13.1885C19.9136 12.6483 19.9136 11.7724 19.3734 11.2322Z" fill="white"/>
<path id="Vector_2" d="M8.78413 14.3374C9.14499 13.9765 9.58874 13.7483 10.0546 13.6515C10.1514 13.1857 10.3796 12.7419 10.7405 12.381C11.1013 12.0202 11.5451 11.792 12.011 11.6952C12.1077 11.2294 12.3359 10.7856 12.6968 10.4247C13.0576 10.0639 13.5014 9.83565 13.9673 9.7389C14.064 9.27304 14.2922 8.82926 14.6531 8.4684C15.6392 7.4823 17.2437 7.48226 18.2298 8.4684L18.4687 8.70727C19.5917 6.62101 19.3077 3.96597 17.5692 2.19332C15.7953 0.384587 13.0817 0.0569937 10.967 1.21005C11.0142 1.2545 11.0607 1.29923 11.1057 1.34422L13.2029 3.44144C14.189 4.42755 14.189 6.03209 13.2029 7.0182C12.2168 8.0043 10.6122 8.0043 9.62609 7.0182L7.2339 4.626L0.627823 11.2321C0.0876007 11.7723 0.0876007 12.6482 0.627823 13.1884C1.16805 13.7286 2.04388 13.7286 2.5841 13.1884C2.04392 13.7287 2.04392 14.6045 2.58414 15.1447C3.12436 15.6849 4.00024 15.6849 4.54046 15.1447C4.00024 15.6849 4.00024 16.5608 4.54046 17.101C5.08068 17.6413 5.95652 17.6413 6.49674 17.1011C5.95656 17.6413 5.95656 18.5171 6.49678 19.0574C7.037 19.5976 7.91288 19.5976 8.4531 19.0574L9.19025 18.3202L8.78417 17.9141C7.79803 16.928 7.79803 15.3235 8.78413 14.3374Z" fill="white"/>
<path id="Vector_3" d="M6.42408 3.81589C6.87156 3.3684 7.59707 3.3684 8.04452 3.81589L10.4367 6.20808C10.4521 6.22351 10.468 6.23841 10.4839 6.25296C11.0101 6.7323 11.8196 6.7323 12.3458 6.25296C12.3617 6.23841 12.3776 6.22351 12.393 6.20808C12.4094 6.1917 12.4252 6.17497 12.4406 6.15797C12.9223 5.62615 12.916 4.80742 12.4224 4.2827C12.4126 4.27235 12.4031 4.26189 12.393 4.25176L10.2957 2.15455C10.2 2.05883 10.1015 1.96766 10.0007 1.88046L10.0008 1.88042C7.81592 -0.0101247 4.49106 0.0940698 2.43207 2.19343C0.693536 3.96607 0.409522 6.62116 1.53255 8.70741L6.42408 3.81589Z" fill="white"/>
</g>
</g>
<defs>
<clipPath id="clip0_351_3877">
<rect width="19.5556" height="19.5556" fill="white" transform="translate(0.222656 0.222168)"/>
</clipPath>
</defs>
</svg>
