<svg width="14" height="14" viewBox="0 0 14 14" fill="none" xmlns="http://www.w3.org/2000/svg">
<g id="Capa_1" opacity="0.9" clip-path="url(#clip0_1073_17670)">
<g id="Group">
<path id="Vector" d="M12.9641 7.66558L11.721 6.42248C11.3772 6.0787 10.8198 6.0787 10.476 6.42248C10.1322 6.76625 10.1322 7.32363 10.476 7.66741C10.1322 7.32363 9.57487 7.32363 9.23109 7.66741C8.88732 8.01118 8.88731 8.56853 9.23107 8.91231C8.88729 8.56856 8.32994 8.56856 7.98616 8.91234C7.64238 9.25611 7.64238 9.81346 7.98614 10.1572C7.64236 9.81349 7.08501 9.81349 6.74123 10.1573C6.39745 10.501 6.39745 11.0584 6.74123 11.4022L7.98434 12.6453C8.32812 12.9891 8.88549 12.9891 9.22927 12.6453C9.57305 12.3015 9.57305 11.7442 9.22927 11.4004C9.57305 11.7442 10.1304 11.7442 10.4742 11.4004C10.818 11.0566 10.818 10.4992 10.4742 10.1554C10.818 10.4992 11.3754 10.4992 11.7191 10.1554C12.0629 9.81167 12.0629 9.25432 11.7192 8.91054C12.0629 9.25429 12.6203 9.25427 12.9641 8.91051C13.3078 8.56674 13.3078 8.00936 12.9641 7.66558Z" fill="white"/>
<path id="Vector_2" d="M6.22556 9.64127C6.45519 9.41163 6.73758 9.2664 7.03406 9.20484C7.09562 8.90838 7.24085 8.62598 7.47049 8.39634C7.70012 8.1667 7.98251 8.02147 8.27899 7.95991C8.34055 7.66345 8.48578 7.38105 8.71542 7.15141C8.94506 6.92177 9.22744 6.77654 9.52392 6.71498C9.58548 6.41852 9.73071 6.13611 9.96035 5.90648C10.5879 5.27895 11.6089 5.27893 12.2365 5.90648L12.3885 6.05848C13.1031 4.73086 12.9224 3.04129 11.8161 1.91324C10.6872 0.76223 8.96034 0.553761 7.61467 1.28752C7.64468 1.31581 7.67426 1.34427 7.7029 1.37291L9.03749 2.7075C9.66501 3.33502 9.66503 4.3561 9.03749 4.98362C8.40997 5.61114 7.38889 5.61114 6.76135 4.98362L5.23904 3.46131L1.03518 7.66518C0.691399 8.00896 0.691399 8.56633 1.03518 8.91011C1.37895 9.25389 1.93631 9.25389 2.28008 8.91013C1.93633 9.25391 1.93633 9.81126 2.28011 10.155C2.62389 10.4988 3.18126 10.4988 3.52504 10.155C3.18126 10.4988 3.18126 11.0562 3.52504 11.4C3.86882 11.7437 4.42617 11.7437 4.76994 11.4C4.42619 11.7438 4.42619 12.3011 4.76997 12.6449C5.11375 12.9887 5.67112 12.9887 6.0149 12.6449L6.484 12.1758L6.22558 11.9174C5.59803 11.2899 5.59803 10.2688 6.22556 9.64127Z" fill="white"/>
<path id="Vector_3" d="M4.72326 2.94579C5.00802 2.66102 5.46971 2.66102 5.75445 2.94579L7.27675 4.46809C7.28657 4.47791 7.29663 4.48739 7.30679 4.49665C7.64165 4.80168 8.15676 4.80168 8.49162 4.49665C8.50178 4.48739 8.51184 4.47791 8.52166 4.46809C8.53209 4.45766 8.54217 4.44702 8.55197 4.4362C8.85848 4.09777 8.85447 3.57676 8.54035 3.24285C8.53415 3.23626 8.52807 3.2296 8.52163 3.22316L7.18704 1.88857C7.12613 1.82766 7.06345 1.76964 6.9993 1.71415L6.99938 1.71413C5.60898 0.511049 3.49315 0.577355 2.18289 1.91331C1.07655 3.04135 0.895815 4.73096 1.61047 6.05857L4.72326 2.94579Z" fill="white"/>
</g>
</g>
<defs>
<clipPath id="clip0_1073_17670">
<rect width="12.4444" height="12.4444" fill="white" transform="translate(0.777344 0.658661)"/>
</clipPath>
</defs>
</svg>
