<svg width="20" height="20" viewBox="0 0 20 20" fill="none" xmlns="http://www.w3.org/2000/svg">
<g id="Frame" opacity="0.9" clip-path="url(#clip0_351_3888)">
<path id="Vector" d="M17.3816 11.9103C17.1466 8.38287 14.4163 5.51813 10.9336 5.0874C12.4071 7.05054 13.2493 9.42173 13.3422 11.876L17.3816 11.9103Z" fill="white"/>
<path id="Vector_2" d="M4.8527 7.14689C3.58139 8.39672 2.81959 10.027 2.67383 11.7854L6.71274 11.8197C6.84732 9.36739 7.72952 7.01068 9.23627 5.07275C7.5857 5.24672 6.05344 5.96615 4.8527 7.14689Z" fill="white"/>
<path id="Vector_3" d="M9.10896 19.7202C7.64399 17.7666 6.80401 15.4093 6.70495 12.9682L2.66797 12.9341C2.91743 16.445 5.63848 19.2927 9.10836 19.7239C9.10851 19.7227 9.10851 19.7214 9.10896 19.7202Z" fill="white"/>
<path id="Vector_4" d="M10.8086 19.7391C12.4593 19.5656 13.9925 18.8455 15.1938 17.6644C16.4572 16.4223 17.2172 14.8043 17.3695 13.0582L13.3308 13.0239C13.1901 15.4649 12.3089 17.8097 10.8086 19.7391Z" fill="white"/>
<path id="Vector_5" d="M9.966 18.9505C11.2728 17.2358 12.0443 15.1678 12.1795 13.0147L7.85352 12.978C7.95228 15.1332 8.68842 17.214 9.966 18.9505Z" fill="white"/>
<path id="Vector_6" d="M10.5958 5.05375V4.24241L11.3683 3.87136C11.6205 4.12499 11.9561 4.30851 12.3439 4.39594C12.5206 4.43577 12.7036 4.45546 12.8897 4.45546C13.2889 4.45546 13.7013 4.3646 14.0904 4.18721C14.5604 3.97296 15.2103 3.40362 16.0771 2.44652C16.687 1.77305 17.1718 1.16268 17.1921 1.13702C17.326 0.96813 17.3539 0.738367 17.2646 0.542172C17.1752 0.346127 16.9835 0.216475 16.7681 0.206777C16.7354 0.205285 15.9567 0.17097 15.0481 0.189619C13.757 0.216326 12.9009 0.333445 12.4309 0.547543C11.8605 0.807594 11.3978 1.22714 11.1278 1.72904C10.9362 2.08562 10.8551 2.46667 10.8858 2.82922L10.5958 2.96857V0.75821C10.5958 0.441166 10.3387 0.184099 10.0217 0.184099C9.70446 0.184099 9.44739 0.441166 9.44739 0.75821V2.96871L9.15706 2.82922C9.18779 2.46652 9.10678 2.08562 8.91506 1.72904C8.64516 1.22714 8.18235 0.807594 7.61197 0.547543C7.14215 0.333296 6.28591 0.216326 4.99475 0.189619C4.08629 0.17097 3.30748 0.205285 3.27481 0.206777C3.05952 0.216475 2.8678 0.346127 2.77828 0.542172C2.68891 0.738367 2.71681 0.96813 2.85079 1.13702C2.87108 1.16268 3.35582 1.7729 3.96574 2.44652C4.83258 3.40362 5.48248 3.97296 5.95245 4.18721C6.34156 4.3646 6.75394 4.45546 7.15319 4.45546C7.33924 4.45546 7.5223 4.43577 7.69895 4.39594C8.08672 4.30851 8.42241 4.12499 8.67455 3.87136L9.44739 4.24241V5.0533C9.65806 5.03704 9.87022 5.02958 10.0839 5.03137" fill="white"/>
<path id="Vector_7" d="M10.0769 5.86084C8.76352 7.58437 7.99068 9.66462 7.86133 11.8296L12.191 11.8663C12.0984 9.69939 11.361 7.6063 10.0769 5.86084Z" fill="white"/>
</g>
<defs>
<clipPath id="clip0_351_3888">
<rect width="19.5556" height="19.5556" fill="white" transform="translate(0.222656 0.222168)"/>
</clipPath>
</defs>
</svg>
