<svg width="16" height="18" viewBox="0 0 16 18" fill="none" xmlns="http://www.w3.org/2000/svg">
<g id="Group">
<path id="Vector" d="M15.2273 4.88903C14.2859 4.88903 13.4174 4.57718 12.7199 4.05109C11.92 3.44801 11.3453 2.56336 11.1423 1.54372C11.0921 1.29179 11.065 1.03181 11.0624 0.765381H8.37335V8.11321L8.37012 12.1379C8.37012 13.214 7.66943 14.1263 6.69811 14.4472C6.41622 14.5403 6.11178 14.5844 5.79478 14.567C5.39014 14.5448 5.01096 14.4227 4.68139 14.2255C3.98005 13.8061 3.50454 13.0452 3.49166 12.1747C3.47136 10.8142 4.57121 9.705 5.93073 9.705C6.19909 9.705 6.45682 9.74881 6.69811 9.82838V7.82004V7.09808C6.44361 7.06039 6.18459 7.04073 5.92268 7.04073C4.43462 7.04073 3.04289 7.65928 2.04806 8.77363C1.29614 9.61576 0.845111 10.6902 0.775525 11.8168C0.684354 13.2968 1.2259 14.7036 2.27615 15.7416C2.43046 15.894 2.59251 16.0354 2.76196 16.1659C3.6624 16.8589 4.76322 17.2345 5.92268 17.2345C6.18459 17.2345 6.44361 17.2152 6.69811 17.1775C7.78122 17.0171 8.78056 16.5213 9.5692 15.7416C10.5383 14.7838 11.0737 13.5123 11.0795 12.1589L11.0656 6.14867C11.5279 6.50531 12.0334 6.8004 12.5759 7.02946C13.4197 7.38545 14.3143 7.56586 15.235 7.56553V5.61292V4.88838C15.2357 4.88903 15.2279 4.88903 15.2273 4.88903Z" fill="black"/>
</g>
</svg>
