<svg width="196" height="56" viewBox="0 0 196 56" fill="none" xmlns="http://www.w3.org/2000/svg">
<g id="krayr logo white" clip-path="url(#clip0_839_2910)">
<g id="Group 27216">
<g id="Group 27212">
<path id="Path 640" d="M42.5237 1.00742H41.9797V0.464381H55.8439C57.7804 0.411665 59.7077 0.745632 61.5101 1.44623C62.8966 1.98736 64.1351 2.84196 65.1257 3.94129C65.945 4.87822 66.5727 5.96274 66.9741 7.13499C67.3367 8.20206 67.5248 9.31922 67.5315 10.4446C67.5329 11.8183 67.2216 13.1747 66.6207 14.414C65.9812 15.7192 65.0182 16.8442 63.821 17.6851C62.4169 18.6582 60.8029 19.2964 59.1061 19.5495V19.6533C61.4982 20.7568 63.7092 22.9461 65.739 26.2212L69.3543 32.0395C70.9853 34.6422 72.2946 36.2884 73.2824 36.9782C74.1347 37.615 75.1434 38.0166 76.205 38.1417V38.5571H68.9194C68.6111 38.178 68.3211 37.8116 68.0495 37.4579C67.778 37.1041 67.488 36.7293 67.1797 36.3332C66.9982 36.0747 66.7302 35.6826 66.3757 35.1569C66.1806 34.8475 65.9674 34.5495 65.7371 34.2645L60.9515 26.7401C60.1293 25.3784 59.1391 24.1226 58.0035 23.0015C57.18 22.1757 56.2305 21.4822 55.1896 20.946C54.4491 20.574 53.6568 20.3125 52.8385 20.1699C52.0234 20.059 51.2011 20.0071 50.3783 20.0147V33.9522C50.3783 36.6591 51.828 38.0555 54.7275 38.1414V38.5568H41.9785V38.1414C42.7049 38.1211 43.4222 37.9765 44.0984 37.7139C44.7328 37.4488 45.269 36.9973 45.634 36.4208C46.0777 35.6742 46.2906 34.8159 46.2465 33.9515V5.14595C46.2465 3.62911 45.8569 2.56028 45.0777 1.93944C44.364 1.34214 43.4597 1.01212 42.5237 1.00742ZM50.3798 19.0045H52.6631C55.0552 19.0045 57.017 18.6773 58.5487 18.0227C59.9461 17.4818 61.119 16.4939 61.8795 15.2172C62.6068 13.8426 62.9628 12.3063 62.9132 10.7565C62.9094 9.27401 62.5948 7.80826 61.989 6.45146C61.3228 4.98902 60.2298 3.75565 58.8496 2.90884C57.3723 1.95216 55.3833 1.4738 52.8825 1.4738C52.0426 1.45642 51.2035 1.53448 50.3817 1.70643L50.3798 19.0045Z" fill="#161615"/>
<path id="Path 641" d="M100.735 0L112.723 32.6325C113.159 33.9273 113.762 35.1614 114.517 36.3046C114.912 36.9209 115.472 37.4175 116.135 37.7397C116.77 37.9632 117.433 38.0982 118.105 38.1407V38.5561H105.03V38.1407C106.076 38.1785 107.121 38.0565 108.129 37.7789C108.854 37.5373 109.216 36.8827 109.217 35.8152C109.171 35.0089 108.996 34.2146 108.7 33.4618C108.642 33.3673 108.604 33.2616 108.591 33.1517L105.031 23.0412H91.166L87.9853 32.4018C87.6091 33.3883 87.3896 34.4262 87.3344 35.4787C87.3344 36.5477 87.6152 37.2589 88.1767 37.6124C88.9084 38.0059 89.7372 38.1891 90.5692 38.1411V38.5565H81.1621V38.1411C82.3849 38.075 83.5364 37.5528 84.3834 36.6804C85.1897 35.8269 85.8916 34.5296 86.4891 32.7885L97.7978 0.000760624L100.735 0ZM91.6281 21.6689H104.377L97.8533 3.594H97.7446L91.6281 21.6689Z" fill="#161615"/>
<path id="Path 642" d="M157.02 0.464844V0.904415C155.904 0.901451 154.805 1.17712 153.826 1.70577C153.016 2.13053 152.278 2.67569 151.637 3.32207C151.04 3.96912 150.478 4.64678 149.953 5.35225L140.6 18.7463V34.0029C140.6 35.3647 141.031 36.386 141.892 37.0667C142.779 37.7572 143.874 38.135 145.004 38.1399V38.5553H132.308V38.1399C133.422 38.1664 134.508 37.7944 135.366 37.0924C136.118 36.4295 136.494 35.3997 136.494 34.0029V19.3928L126.301 4.86056C125.213 3.2921 124.239 2.24918 123.378 1.73181C122.306 1.16186 121.102 0.876733 119.885 0.904415V0.464844H134.102V0.904415C132.652 0.956278 131.723 1.25375 131.316 1.79679C130.949 2.23136 130.734 2.77084 130.703 3.33528C130.703 3.88688 131.056 4.66255 131.763 5.66228L140.109 17.4276L147.507 6.82578C148.63 5.2397 149.192 4.02446 149.192 3.18007C149.222 2.68383 149.062 2.19448 148.743 1.80963C148.5 1.52107 148.187 1.29851 147.832 1.1631C147.512 1.05636 147.185 0.969952 146.854 0.904415V0.464844H157.02Z" fill="#161615"/>
<path id="Path 643" d="M162.319 1.00741H161.775V0.464371H175.639C177.576 0.411707 179.503 0.745672 181.305 1.44622C182.692 1.98734 183.93 2.84195 184.921 3.94128C185.74 4.8782 186.368 5.96272 186.769 7.13498C187.132 8.20207 187.32 9.31923 187.327 10.4446C187.328 11.8183 187.017 13.1747 186.416 14.414C185.776 15.7193 184.813 16.8443 183.616 17.6851C182.212 18.6582 180.598 19.2965 178.901 19.5495V19.6533C181.293 20.7568 183.505 22.9461 185.534 26.2212L189.15 32.0395C190.781 34.6422 192.09 36.2884 193.078 36.9782C193.93 37.6148 194.939 38.0164 196 38.1417V38.5571H188.715C188.407 38.178 188.117 37.8116 187.845 37.4578C187.573 37.1041 187.283 36.7292 186.975 36.3332C186.794 36.0747 186.527 35.6826 186.173 35.1569C185.978 34.8474 185.765 34.5494 185.534 34.2645L180.749 26.7401C179.927 25.3783 178.937 24.1225 177.801 23.0015C176.977 22.1759 176.028 21.4824 174.987 20.946C174.247 20.574 173.454 20.3125 172.636 20.1699C171.821 20.0589 170.998 20.0071 170.176 20.0147V33.9522C170.176 36.6591 171.625 38.0555 174.525 38.1414V38.5568H161.776V38.1414C162.503 38.1214 163.22 37.977 163.896 37.7146C164.531 37.4494 165.067 36.9979 165.432 36.4216C165.876 35.6749 166.089 34.8166 166.045 33.9522V5.14594C166.045 3.6291 165.655 2.56027 164.876 1.93943C164.162 1.3414 163.256 1.01134 162.319 1.00741ZM170.175 19.0045H172.458C174.851 19.0045 176.813 18.6772 178.344 18.0227C179.741 17.4817 180.914 16.4938 181.675 15.2172C182.402 13.8425 182.758 12.3063 182.709 10.7565C182.705 9.27402 182.39 7.80831 181.784 6.45145C181.118 4.98917 180.025 3.75586 178.645 2.90883C177.167 1.95215 175.178 1.47379 172.678 1.47379C171.838 1.45642 170.999 1.53448 170.177 1.70642L170.175 19.0045Z" fill="#161615"/>
</g>
<g id="Group 27214">
<g id="Group 27213">
<path id="Path 644" d="M76.5268 49.9216C78.353 49.9216 79.812 50.8589 79.812 52.6822C79.812 54.5137 78.353 55.5439 76.5268 55.5439H74.5742V49.9216H76.5268ZM74.9571 50.2237V55.2297H76.5268C78.1604 55.2297 79.4177 54.3264 79.4177 52.6803C79.4177 51.0342 78.1604 50.2237 76.5268 50.2237H74.9571Z" fill="#161615"/>
<path id="Path 645" d="M81.5117 55.5439V49.9216H81.9064V55.5439H81.5117Z" fill="#161615"/>
<path id="Path 646" d="M87.2465 53.6881H84.475L83.6672 55.5453H83.2266L85.8881 49.5261L88.4666 55.5453H88.0264L87.2465 53.6881ZM84.6048 53.3928H87.1194L86.2932 51.409C85.9904 50.6915 85.8985 50.3875 85.8805 50.3535C85.7685 50.7134 85.6336 51.0659 85.4766 51.409L84.6048 53.3928Z" fill="#161615"/>
<path id="Path 647" d="M95.8564 55.5442L94.9759 50.7323C94.8581 51.1167 94.7202 51.4949 94.5628 51.8652L92.8744 56.0015L91.1948 51.8652C90.8553 51.0374 90.7737 50.7421 90.7737 50.7421L89.9111 55.5457H89.498L90.6271 49.5095L92.3526 53.7897C92.7286 54.7183 92.8572 55.1069 92.8756 55.1575C92.8848 55.1152 92.9763 54.8112 93.3802 53.815L95.124 49.5099L96.2619 55.5461L95.8564 55.5442Z" fill="#161615"/>
<path id="Path 648" d="M100.666 49.7698C101.258 49.7867 101.832 49.9753 102.316 50.3122C102.8 50.649 103.173 51.1191 103.387 51.6637C103.602 52.2082 103.649 52.8031 103.523 53.374C103.397 53.9449 103.103 54.4666 102.678 54.8737C102.253 55.2808 101.716 55.5554 101.134 55.6631C100.552 55.7708 99.9504 55.7069 99.4048 55.4794C98.8592 55.2518 98.3937 54.8707 98.0664 54.3837C97.7391 53.8967 97.5646 53.3253 97.5647 52.741C97.56 52.3421 97.6376 51.9464 97.793 51.578C97.9483 51.2096 98.178 50.8763 98.4681 50.5983C98.7583 50.3203 99.1027 50.1035 99.4805 49.9611C99.8584 49.8186 100.262 49.7535 100.666 49.7698ZM100.666 55.4003C101.199 55.4 101.72 55.2437 102.163 54.9513C102.606 54.6588 102.951 54.2434 103.155 53.7574C103.359 53.2714 103.412 52.7368 103.308 52.2211C103.204 51.7053 102.947 51.2316 102.57 50.8599C102.192 50.4882 101.712 50.2351 101.189 50.1327C100.666 50.0302 100.124 50.083 99.6317 50.2843C99.1391 50.4856 98.7182 50.8265 98.422 51.2638C98.1259 51.7011 97.9678 52.2151 97.9678 52.741C97.957 53.0933 98.0195 53.444 98.1512 53.7716C98.283 54.0991 98.4814 54.3967 98.7341 54.6458C98.9869 54.8949 99.2886 55.0904 99.6208 55.2201C99.953 55.3499 100.309 55.4112 100.666 55.4003Z" fill="#161615"/>
<path id="Path 649" d="M110.183 55.9157L106.751 51.7371C106.219 51.0872 105.852 50.5804 105.852 50.5804C105.861 50.7239 105.87 51.1291 105.87 51.7624V55.5445H105.484V49.6091L108.899 53.7632C109.44 54.4218 109.817 54.9452 109.817 54.9452C109.808 54.7941 109.799 54.3206 109.799 53.7295V49.9218H110.184L110.183 55.9157Z" fill="#161615"/>
<path id="Path 650" d="M114.22 49.9216C116.047 49.9216 117.506 50.8589 117.506 52.6822C117.506 54.5137 116.047 55.5439 114.22 55.5439H112.266V49.9216H114.22ZM112.651 50.2237V55.2297H114.22C115.854 55.2297 117.111 54.3264 117.111 52.6803C117.111 51.0342 115.854 50.2237 114.22 50.2237H112.651Z" fill="#161615"/>
<path id="Path 651" d="M122.189 50.5462C121.759 50.2673 121.261 50.107 120.747 50.082C119.884 50.082 119.425 50.5462 119.425 51.1712C119.425 51.9812 120.16 52.2852 120.912 52.6062C121.711 52.9438 122.527 53.2897 122.527 54.2523C122.527 55.054 121.922 55.7126 120.747 55.7126C120.136 55.6979 119.541 55.5136 119.031 55.1809V54.7757C119.522 55.1572 120.123 55.3758 120.747 55.4003C121.646 55.4003 122.133 54.8856 122.133 54.2772C122.133 53.4585 121.389 53.1549 120.655 52.8592C119.902 52.5571 119.021 52.1417 119.021 51.1976C119.021 50.3705 119.701 49.7712 120.747 49.7712C121.254 49.7878 121.749 49.9265 122.189 50.1753V50.5462Z" fill="#161615"/>
</g>
</g>
<path id="Path 652" d="M10.3317 21.2974L25.0566 5.93013C25.5566 5.45681 25.9675 4.89972 26.2702 4.28476C26.7342 3.20849 26.2607 1.77647 22.9942 1.03215C22.8533 1.00005 22.8839 0.845589 23.0325 0.845589H32.9912C31.9275 1.24744 30.9191 1.779 29.9892 2.42789C28.9628 3.1152 27.5084 4.07366 26.6278 5.02531L12.8272 20.0368C13.1334 20.4522 13.9684 21.4341 14.2732 21.8117L29.6853 42.1766L30.8101 43.5965C31.3404 44.2453 32.0038 44.7763 32.7566 45.1546C33.5095 45.5329 34.3349 45.75 35.1788 45.7918H27.1512C26.9716 45.7985 26.7929 45.7648 26.6285 45.6933C26.4642 45.6218 26.3185 45.5143 26.2025 45.379L10.95 25.1617C10.7863 24.9436 10.5838 24.7566 10.3524 24.6096C10.0238 24.3887 9.62982 24.2824 9.23296 24.3075C8.92578 24.3272 8.62759 24.4178 8.36235 24.5719C7.31372 25.1821 6.90331 26.7157 6.74366 26.411C6.62689 26.1878 6.73179 9.12495 6.79687 4.80137C6.81602 3.52419 6.05797 2.30328 4.71569 1.50609C3.70228 0.903754 2.21376 0.367138 0.0383973 0.164346C-0.0163504 0.159437 -0.0109909 0.0986328 0.0445225 0.0986328H14.5929C14.7548 0.0986328 14.8103 0.25913 14.6694 0.316909C13.3804 0.840316 10.3409 2.24286 10.3409 3.82705V19.348" fill="#161615"/>
</g>
</g>
<defs>
<clipPath id="clip0_839_2910">
<rect width="196" height="56" fill="white"/>
</clipPath>
</defs>
</svg>
