<svg width="16" height="16" viewBox="0 0 16 16" fill="none" xmlns="http://www.w3.org/2000/svg">
<g id="Layer_1" opacity="0.9">
<path id="Vector" d="M14.4764 6.00931H11.9202L11.2764 7.25716C11.8211 7.28268 12.3461 7.44625 12.8023 7.744L14.4764 6.00931Z" fill="white"/>
<path id="Vector_2" d="M11.3749 5.52363L10.049 2.93509H8.00032H5.9516L4.62598 5.52363H8.00032H11.3749Z" fill="white"/>
<path id="Vector_3" d="M5.40624 2.93509H3.99968L1.52148 5.52363H4.08037L5.40624 2.93509Z" fill="white"/>
<path id="Vector_4" d="M10.7177 7.28146L11.3742 6.00931H4.62793L8.00081 12.5405L8.43855 11.6936C8.21592 11.2627 8.09317 10.7841 8.09317 10.2968C8.09317 8.7607 9.21269 7.48952 10.7177 7.28146Z" fill="white"/>
<path id="Vector_5" d="M4.08039 6.00931H1.52441L7.02306 11.7073L4.08039 6.00931Z" fill="white"/>
<path id="Vector_6" d="M12.0023 2.93509H10.5957L11.9216 5.52363H14.4805L12.0023 2.93509Z" fill="white"/>
<path id="Vector_7" d="M12.688 8.25443C12.2419 7.91463 11.707 7.73502 11.1409 7.73502C11.0578 7.73502 10.9771 7.73963 10.8964 7.74644C9.57612 7.87015 8.5791 8.96682 8.5791 10.2968C8.5791 10.7455 8.69723 11.1879 8.92084 11.5755C8.98986 11.6954 9.06813 11.8096 9.15417 11.9156C9.64466 12.5147 10.369 12.8586 11.1409 12.8586C12.5535 12.8586 13.7027 11.7095 13.7027 10.2968C13.7027 9.48818 13.333 8.7437 12.688 8.25443ZM12.3907 9.84644L11.1463 11.0909C11.0989 11.1383 11.0366 11.1621 10.9744 11.1621C10.9122 11.1621 10.85 11.1383 10.8026 11.0909L9.89087 10.1792C9.79584 10.0841 9.79584 9.93054 9.89087 9.8355C9.98591 9.74047 10.1395 9.74047 10.2346 9.8355L10.9744 10.5754L12.047 9.50276C12.1421 9.40772 12.2957 9.40772 12.3907 9.50276C12.4857 9.59779 12.4857 9.75141 12.3907 9.84644Z" fill="white"/>
</g>
</svg>
