<svg width="25" height="24" viewBox="0 0 25 24" fill="none" xmlns="http://www.w3.org/2000/svg">
<g id="Mask group">
<mask id="mask0_587_1589" style="mask-type:alpha" maskUnits="userSpaceOnUse" x="0" y="0" width="25" height="24">
<circle id="Ellipse 12" cx="12.1738" cy="12" r="12" fill="#D9D9D9"/>
</mask>
<g mask="url(#mask0_587_1589)">
<g id="Sudan">
<path id="Vector" d="M11.7344 24C18.3618 24 23.7344 18.6274 23.7344 12C23.7344 5.37258 18.3618 0 11.7344 0C5.10696 0 -0.265625 5.37258 -0.265625 12C-0.265625 18.6274 5.10696 24 11.7344 24Z" fill="#149C48"/>
<path id="Vector_2" d="M23.7344 12C23.7344 18.64 18.3744 24 11.7344 24C5.09438 24 -0.265625 18.64 -0.265625 12H23.7344Z" fill="black"/>
<path id="Vector_3" d="M-0.265625 12C-0.265625 13.36 -0.025625 14.72 0.454375 16H23.0944C24.0544 13.44 24.0544 10.56 23.0944 8H0.454375C-0.025625 9.28 -0.265625 10.64 -0.265625 12Z" fill="#F0F0F0"/>
<path id="Vector_4" d="M3.33355 1.60024C-1.46645 6.16024 -2.10641 16.0002 2.53359 20.8002C2.61359 20.9602 7.73359 25.2002 7.73362 23.3174V0.682617L3.33355 1.60024Z" fill="#EB1C26"/>
</g>
</g>
</g>
</svg>
