<svg width="14" height="14" viewBox="0 0 14 14" fill="none" xmlns="http://www.w3.org/2000/svg">
<g id="Frame" opacity="0.9" clip-path="url(#clip0_1073_17681)">
<path id="Vector" d="M11.696 8.09623C11.5465 5.85148 9.80904 4.02847 7.59277 3.75436C8.53044 5.00363 9.06639 6.51257 9.12554 8.0744L11.696 8.09623Z" fill="white"/>
<path id="Vector_2" d="M3.72347 5.06539C2.91446 5.86073 2.42967 6.89818 2.33691 8.01719L4.90713 8.03903C4.99277 6.47844 5.55417 4.97871 6.51301 3.74548C5.46265 3.85619 4.48758 4.31401 3.72347 5.06539Z" fill="white"/>
<path id="Vector_3" d="M6.43182 13.0659C5.49957 11.8228 4.96504 10.3226 4.90199 8.76927L2.33301 8.74753C2.49175 10.9817 4.22334 12.7939 6.43144 13.0683C6.43154 13.0676 6.43154 13.0667 6.43182 13.0659Z" fill="white"/>
<path id="Vector_4" d="M7.51367 13.0785C8.56413 12.968 9.53977 12.5098 10.3043 11.7582C11.1082 10.9678 11.5919 9.93811 11.6888 8.82698L9.11869 8.80515C9.02916 10.3585 8.46843 11.8507 7.51367 13.0785Z" fill="white"/>
<path id="Vector_5" d="M6.9781 12.5767C7.80971 11.4855 8.30066 10.1695 8.38668 8.79933L5.63379 8.77597C5.69664 10.1474 6.16509 11.4716 6.9781 12.5767Z" fill="white"/>
<path id="Vector_6" d="M7.37877 3.73322V3.21691L7.87039 2.98079C8.03084 3.14219 8.24446 3.25897 8.49122 3.31461C8.60364 3.33996 8.72013 3.35249 8.83853 3.35249C9.0926 3.35249 9.35502 3.29467 9.60263 3.18178C9.90171 3.04544 10.3153 2.68314 10.8669 2.07407C11.255 1.6455 11.5635 1.25708 11.5764 1.24075C11.6617 1.13328 11.6794 0.987065 11.6226 0.862214C11.5657 0.737458 11.4437 0.654952 11.3066 0.648781C11.2858 0.647831 10.7903 0.625994 10.2121 0.637862C9.39043 0.654857 8.84565 0.729388 8.54657 0.865632C8.18361 1.03112 7.88918 1.2981 7.71734 1.61749C7.59543 1.84441 7.54378 2.08689 7.56334 2.31761L7.37877 2.40628V0.999692C7.37877 0.797937 7.21518 0.634349 7.01342 0.634349C6.81157 0.634349 6.64799 0.797937 6.64799 0.999692V2.40638L6.46323 2.31761C6.48278 2.0868 6.43123 1.84441 6.30923 1.61749C6.13747 1.2981 5.84296 1.03112 5.47999 0.865632C5.18101 0.729293 4.63613 0.654857 3.81449 0.637862C3.23638 0.625994 2.74077 0.647831 2.71998 0.648781C2.58297 0.654952 2.46097 0.737458 2.404 0.862214C2.34713 0.987065 2.36489 1.13328 2.45015 1.24075C2.46306 1.25708 2.77153 1.6454 3.15966 2.07407C3.71128 2.68314 4.12486 3.04544 4.42393 3.18178C4.67154 3.29467 4.93397 3.35249 5.18804 3.35249C5.30643 3.35249 5.42293 3.33996 5.53534 3.31461C5.7821 3.25897 5.99572 3.14219 6.15618 2.98079L6.64799 3.21691V3.73293C6.78205 3.72258 6.91706 3.71783 7.05302 3.71897" fill="white"/>
<path id="Vector_7" d="M7.04859 4.24655C6.2128 5.34334 5.72099 6.66714 5.63867 8.04487L8.39394 8.06822C8.33498 6.68926 7.86577 5.3573 7.04859 4.24655Z" fill="white"/>
</g>
<defs>
<clipPath id="clip0_1073_17681">
<rect width="12.4444" height="12.4444" fill="white" transform="translate(0.777344 0.658661)"/>
</clipPath>
</defs>
</svg>
