<svg width="25" height="24" viewBox="0 0 25 24" fill="none" xmlns="http://www.w3.org/2000/svg">
<g id="shopping-bag-02">
<path id="Icon" d="M16.1742 9V6C16.1742 3.79086 14.3833 2 12.1742 2C9.96506 2 8.1742 3.79086 8.1742 6V9M3.7662 10.352L3.1662 16.752C2.9956 18.5717 2.91031 19.4815 3.21225 20.1843C3.4775 20.8016 3.94232 21.3121 4.53222 21.6338C5.20372 22 6.11756 22 7.94524 22H16.4031C18.2308 22 19.1447 22 19.8162 21.6338C20.4061 21.3121 20.8709 20.8016 21.1361 20.1843C21.4381 19.4815 21.3528 18.5717 21.1822 16.752L20.5822 10.352C20.4381 8.81535 20.3661 8.04704 20.0205 7.46616C19.7162 6.95458 19.2665 6.54511 18.7288 6.28984C18.1182 6 17.3465 6 15.8032 6L8.54525 6C7.00189 6 6.23021 6 5.61962 6.28984C5.08186 6.54511 4.6322 6.95458 4.32786 7.46616C3.98229 8.04704 3.91026 8.81534 3.7662 10.352Z" stroke="white" stroke-linecap="round" stroke-linejoin="round"/>
</g>
</svg>
