<svg width="24" height="24" viewBox="0 0 24 24" fill="none" xmlns="http://www.w3.org/2000/svg">
<g id="Frame" clip-path="url(#clip0_1073_17564)">
<path id="Vector" d="M3.67021 3.62446L3.67021 3.62447C1.4344 5.83669 0.202905 8.77505 0.2 11.8889V11.8925V11.8947L3.67021 3.62446ZM3.67021 3.62446C5.90226 1.41583 8.85575 0.200021 11.9878 0.2L3.67021 3.62446ZM1.6716 17.4819L1.65559 17.5546L0.29585 23.7351L6.55147 22.3121L6.6216 22.2962L6.68583 22.3285C8.3201 23.1522 10.1439 23.5865 11.9833 23.5872C11.9834 23.5872 11.9834 23.5872 11.9834 23.5872H11.9881C15.1197 23.5872 18.0732 22.3712 20.3056 20.1624L20.4463 20.3046L20.3056 20.1624C22.5435 17.9482 23.7755 15.0137 23.7769 11.8979M1.6716 17.4819L11.9879 0.2C15.1272 0.201281 18.0757 1.41822 20.2927 3.62692C22.5419 5.86807 23.7778 8.80518 23.7769 11.8979M1.6716 17.4819L1.63613 17.4164M1.6716 17.4819L1.63613 17.4164M23.7769 11.8979L23.9769 11.898L23.7769 11.8979ZM1.63613 17.4164C0.694975 15.6786 0.200366 13.7771 0.2 11.8947L1.63613 17.4164ZM11.9836 22.1141H11.9837H11.9879C17.6721 22.1141 22.3013 17.5329 22.3036 11.8975C22.3045 9.19689 21.2195 6.63015 19.253 4.67053L19.253 4.6705C17.314 2.739 14.7331 1.67429 11.9876 1.67317H11.9875C6.30485 1.67317 1.67672 6.25864 1.67317 11.8926V11.8927C1.67317 13.6361 2.16371 15.4001 3.08883 16.9955L3.23253 17.2433L2.30132 21.4754L2.23356 21.7833L2.541 21.7134L6.83163 20.7375L7.07571 20.87C7.07572 20.87 7.07573 20.87 7.07574 20.87C8.57386 21.6834 10.2709 22.1133 11.9836 22.1141Z" fill="#16060A" stroke="white" stroke-width="0.4"/>
<path id="Vector_2" d="M9.15108 7.18867C9.06213 6.99873 8.98327 6.92526 8.92902 6.89309C8.87309 6.85994 8.81721 6.85345 8.72208 6.84941H8.20074C8.06349 6.84941 7.82376 6.90146 7.61687 7.1266L7.61686 7.1266C7.60054 7.14437 7.58249 7.16356 7.56302 7.18428C7.28356 7.48153 6.70977 8.09186 6.70977 9.27075C6.70977 9.89794 6.94016 10.5261 7.19645 11.0291C7.44751 11.5218 7.71486 11.878 7.78634 11.9732L7.7893 11.9771L7.78944 11.9773L7.62946 12.0974C7.63983 12.1112 7.65951 12.1402 7.68822 12.1826C8.03885 12.7007 9.73736 15.2103 12.3137 16.2229L9.15108 7.18867ZM9.15108 7.18867L9.16084 7.21031C9.28078 7.47612 9.47166 7.94493 9.6428 8.36875C9.66985 8.43573 9.69656 8.50198 9.72249 8.56631C9.85676 8.89938 9.97035 9.18115 10.0032 9.24659M9.15108 7.18867L10.026 9.54591C10.026 9.54586 10.0261 9.54582 10.0261 9.54577C10.0764 9.44533 10.0592 9.35822 10.0032 9.24659M13.8717 14.4454C14.0296 14.2654 14.5775 13.6232 14.769 13.3371L14.7691 13.337C14.839 13.2323 14.8841 13.222 14.9084 13.2192C14.9548 13.2139 15.0201 13.229 15.1518 13.2767L15.2199 13.0887L15.1516 13.2767C15.2645 13.3177 15.6504 13.502 16.0583 13.7016C16.4204 13.8788 16.7849 14.0607 16.9532 14.1447C16.9713 14.1537 16.9871 14.1616 17.0003 14.1682L17.0004 14.1682C17.0612 14.1985 17.1138 14.2238 17.1606 14.2462C17.228 14.2786 17.2833 14.3051 17.3336 14.3326C17.4055 14.3719 17.4314 14.3954 17.4406 14.4065L9.36412 10.4041C9.30034 10.4673 9.20067 10.566 9.15136 10.6982C9.09342 10.8535 9.11346 11.0216 9.21736 11.1993L9.21738 11.1993C9.38024 11.4777 9.95883 12.4239 10.7984 13.1699C11.7059 13.9764 12.4964 14.3219 12.8741 14.487C12.943 14.5171 12.9981 14.5412 13.0378 14.561L13.0379 14.5611C13.1883 14.6361 13.3395 14.6845 13.4913 14.6661C13.6513 14.6467 13.7726 14.5585 13.8717 14.4454ZM13.8717 14.4454L13.7214 14.3135L13.8718 14.4452C13.8718 14.4453 13.8717 14.4453 13.8717 14.4454ZM10.0032 9.24659C10.0032 9.24656 10.0032 9.24653 10.0032 9.2465L10.1819 9.15686L10.0032 9.24659ZM9.78566 9.96105C9.65423 10.1139 9.49291 10.2763 9.36964 10.3986L9.78566 9.96105Z" fill="#16060A" stroke="#16060A" stroke-width="0.4"/>
</g>
<defs>
<clipPath id="clip0_1073_17564">
<rect width="24" height="24" fill="white"/>
</clipPath>
</defs>
</svg>
